#!OML:ASF H:\Terrain\Patient Classification 1\Walking\liu\liu.ASF
:FULLY-SPECIFIED
:DEGREES
211
root 12.495481 24.758549 -11.806260 12.032160 0.148822 -8.654970
lowerback -10.706820 3.572175 4.847100
upperback -1.322837 4.195815 5.644170
thorax 4.581540 2.117790 3.525900
lowerneck -24.014099 -9.721545 -21.818100
upperneck 22.261499 -12.333826 22.493250
head 12.770294 -5.058660 9.739890
rclavicle -0.000000 -0.000000
rhumerus -55.353600 18.477301 -123.735748
rradius 79.706398
rwrist -40.810501
rhand -48.842697 -43.105049
rfingers 10.687531
rthumb -8.686710 -87.956398
lclavicle -0.000000 -0.000000
lhumerus -76.175102 -16.532249 145.835693
lradius 40.176449
lwrist 14.807805
lhand -18.993900 -37.319401
lfingers 10.687531
lthumb 20.127600 7.002285
rfemur 15.304049 8.293125 47.119350
rtibia 0.000000
rfoot -18.544199 8.220855
rtoes -11.915670
lfemur -65.946602 -4.531815 -15.668699
ltibia 31.014599
lfoot -25.581600 23.250750
ltoes -22.540649
212
root 12.520411 24.729000 -11.585445 12.271469 -0.322893 -8.917545
lowerback -10.923300 3.635190 5.067375
upperback -1.430835 4.254165 5.634345
thorax 4.600755 2.148690 3.405840
lowerneck -23.698200 -9.638250 -21.788101
upperneck 22.175550 -12.258856 22.498650
head 12.671114 -5.034720 9.748575
rclavicle -0.000000 0.000000
rhumerus -55.667252 19.012949 -124.390350
rradius 79.742851
rwrist -40.860153
rhand -48.682198 -43.322250
rfingers 10.687531
rthumb -8.531760 -88.177795
lclavicle -0.000000 0.000000
lhumerus -76.353897 -14.889841 144.563705
lradius 40.042198
lwrist 12.048584
lhand -18.948000 -37.082253
lfingers 10.687531
lthumb 20.171850 7.236645
rfemur 15.850050 8.529090 47.295898
rtibia 0.000000
rfoot -19.008749 8.443305
rtoes -11.749425
lfemur -66.606003 -4.867680 -14.703270
ltibia 30.534752
lfoot -26.187750 23.377199
ltoes -23.692650
213
root 12.551609 24.702301 -11.359591 12.512730 -0.723305 -9.374460
lowerback -11.057385 3.713475 5.439825
upperback -1.567380 4.323180 5.738685
thorax 4.546095 2.185575 3.315705
lowerneck -23.783251 -9.597660 -21.697948
upperneck 22.444351 -12.208574 22.331400
head 12.754919 -5.015745 9.686265
rclavicle 0.000000 0.000000
rhumerus -55.788002 19.149151 -124.929001
rradius 79.556099
rwrist -40.490250
rhand -48.540604 -44.535149
rfingers 10.687531
rthumb -8.395081 -89.394302
lclavicle 0.000000 0.000000
lhumerus -76.470901 -14.214779 144.058044
lradius 39.726452
lwrist 11.047815
lhand -22.285799 -44.410347
lfingers 10.687531
lthumb 16.953751 0.102883
rfemur 16.454700 8.729250 47.630550
rtibia 0.000000
rfoot -18.993299 8.801146
rtoes -11.953200
lfemur -67.113152 -4.318305 -14.235915
ltibia 30.128700
lfoot -26.301899 22.611450
ltoes -22.801500
214
root 12.581310 24.678448 -11.140815 12.752686 -1.049772 -9.529245
lowerback -11.208615 3.783465 5.514195
upperback -1.634070 4.402530 5.775060
thorax 4.562280 2.225310 3.325590
lowerneck -23.890049 -9.550395 -21.691950
upperneck 22.542150 -12.125414 22.258801
head 12.789150 -4.977960 9.672435
rclavicle 0.000000 0.000000
rhumerus -56.044201 19.234951 -125.335495
rradius 79.610847
rwrist -40.089149
rhand -48.440849 -45.730198
rfingers 10.687531
rthumb -8.298691 -90.591904
lclavicle 0.000000 0.000000
lhumerus -76.664253 -14.407050 144.227707
lradius 39.441750
lwrist 10.840260
lhand -29.329800 -63.684151
lfingers 10.687531
lthumb 10.156695 -18.876600
rfemur 17.028599 8.819805 47.643600
rtibia 0.000000
rfoot -18.644249 9.132480
rtoes -12.647894
lfemur -67.709251 -4.140240 -14.046209
ltibia 30.121199
lfoot -26.043152 22.815899
ltoes -19.074751
215
root 12.598394 24.654751 -10.942485 12.926926 -1.498844 -9.653296
lowerback -11.102715 3.910020 5.482365
upperback -1.720710 4.585740 5.752035
thorax 4.411065 2.315190 3.329175
lowerneck -23.406750 -9.528720 -21.508202
upperneck 22.210350 -12.143895 22.137751
head 12.580725 -5.007885 9.590595
rclavicle -0.000000 -0.000000
rhumerus -56.729702 19.451401 -125.730759
rradius 80.124298
rwrist -40.156052
rhand -48.301353 -45.985199
rfingers 10.687531
rthumb -8.164064 -90.850349
lclavicle -0.000000 -0.000000
lhumerus -76.776154 -14.440125 144.133652
lradius 38.996552
lwrist 9.992010
lhand -29.841150 -66.042747
lfingers 10.687531
lthumb 9.663120 -21.219749
rfemur 17.581650 9.002775 47.685898
rtibia 0.000000
rfoot -18.588600 9.370320
rtoes -13.618441
lfemur -68.255402 -3.941670 -13.792576
ltibia 30.284401
lfoot -25.598551 23.819851
ltoes -18.397501
216
root 12.636826 24.638700 -10.682910 12.949170 -2.083125 -9.739380
lowerback -11.573790 4.108080 5.579850
upperback -1.531140 4.800285 5.729985
thorax 4.875120 2.425305 3.307455
lowerneck -23.007599 -9.519465 -21.573900
upperneck 21.665400 -12.142410 22.306200
head 12.339869 -5.015535 9.652875
rclavicle 0.000000 0.000000
rhumerus -57.233101 19.664101 -125.995041
rradius 80.600548
rwrist -40.269150
rhand -47.889149 -44.599350
rfingers 10.687531
rthumb -7.765995 -89.474548
lclavicle 0.000000 0.000000
lhumerus -76.535995 -14.627460 144.216751
lradius 38.292603
lwrist 9.484575
lhand -28.488750 -62.620049
lfingers 10.687531
lthumb 10.968630 -17.839649
rfemur 18.599850 9.297359 47.560799
rtibia -0.000000
rfoot -18.981001 9.626835
rtoes -14.996040
lfemur -68.203949 -3.433440 -13.986120
ltibia 30.465151
lfoot -25.439548 24.436050
ltoes -26.319450
217
root 12.670980 24.607950 -10.436700 13.000771 -2.355060 -9.850980
lowerback -12.054134 4.158810 5.698215
upperback -1.324244 4.814370 5.717355
thorax 5.365590 2.436315 3.265620
lowerneck -22.762350 -9.399105 -21.973650
upperneck 21.171749 -11.972250 22.890150
head 12.151724 -4.920705 9.945360
rclavicle 0.000000 0.000000
rhumerus -57.449249 19.974751 -126.415947
rradius 80.728951
rwrist -40.292252
rhand -47.307602 -42.770248
rfingers 10.687531
rthumb -7.204470 -87.658646
lclavicle 0.000000 0.000000
lhumerus -76.230896 -14.544556 143.976746
lradius 37.781399
lwrist 8.627190
lhand -25.265999 -55.467003
lfingers 10.687531
lthumb 14.078760 -10.810530
rfemur 19.503899 9.297766 47.516998
rtibia -0.000000
rfoot -19.206900 9.846300
rtoes -16.856699
lfemur -68.251350 -2.648760 -14.439991
ltibia 30.645302
lfoot -24.753750 23.964300
ltoes -32.715748
218
root 12.702030 24.570299 -10.199085 13.145849 -2.662275 -10.002180
lowerback -12.190035 4.117950 5.718450
upperback -1.427391 4.751925 5.776065
thorax 5.332365 2.404425 3.312000
lowerneck -22.750950 -9.272250 -22.073400
upperneck 21.457651 -11.804880 22.891800
head 12.219541 -4.846050 9.994365
rclavicle -0.000000 -0.000000
rhumerus -57.799950 20.480700 -126.993149
rradius 80.373444
rwrist -40.081951
rhand -47.347801 -43.187401
rfingers 10.687531
rthumb -7.243410 -88.074898
lclavicle -0.000000 -0.000000
lhumerus -76.582352 -14.093325 143.803345
lradius 37.584602
lwrist 7.905900
lhand -21.284401 -47.016750
lfingers 10.687531
lthumb 17.919449 -2.558115
rfemur 20.232750 9.359550 47.484299
rtibia 0.000000
rfoot -18.963749 10.212601
rtoes -15.762300
lfemur -68.368950 -1.636665 -14.873025
ltibia 30.987299
lfoot -24.125549 22.826099
ltoes -28.469551
219
root 12.733126 24.526501 -9.956460 13.205626 -3.108180 -10.189725
lowerback -12.058889 4.045980 5.622765
upperback -1.580175 4.677150 5.894025
thorax 5.089125 2.363820 3.466110
lowerneck -23.023651 -9.153390 -21.554251
upperneck 22.080151 -11.644935 22.139549
head 12.389175 -4.791510 9.670125
rclavicle 0.000000 0.000000
rhumerus -58.033051 20.959949 -127.614899
rradius 79.800003
rwrist -39.681751
rhand -48.271797 -45.797401
rfingers 10.687531
rthumb -8.135565 -90.663300
lclavicle 0.000000 0.000000
lhumerus -76.997551 -13.743240 143.789093
lradius 37.342201
lwrist 7.446045
lhand -17.967600 -39.939598
lfingers 10.687531
lthumb 21.116699 4.315215
rfemur 21.073051 9.541245 47.500652
rtibia 0.000000
rfoot -18.682650 10.488525
rtoes -13.346775
lfemur -68.383194 -0.472462 -15.284851
ltibia 31.375500
lfoot -23.266951 21.883202
ltoes -20.005951
220
root 12.766740 24.483301 -9.712786 13.233286 -3.678375 -10.431735
lowerback -12.039451 4.127160 5.716935
upperback -1.502190 4.772745 5.914095
thorax 5.162415 2.412765 3.447210
lowerneck -23.574600 -9.147240 -20.932199
upperneck 22.402649 -11.640945 21.598801
head 12.543316 -4.777635 9.372345
rclavicle -0.000000 -0.000000
rhumerus -58.234947 21.087000 -128.069244
rradius 79.564804
rwrist -39.484352
rhand -48.985649 -47.587051
rfingers 10.687531
rthumb -8.824785 -92.434502
lclavicle -0.000000 -0.000000
lhumerus -76.842148 -13.421055 143.236496
lradius 37.124100
lwrist 6.372315
lhand -16.302151 -36.868950
lfingers 10.687531
lthumb 22.721251 7.269450
rfemur 22.006950 9.842730 47.575050
rtibia -0.000000
rfoot -18.954149 10.703700
rtoes -13.865206
lfemur -68.410652 0.912927 -15.769950
ltibia 31.972349
lfoot -22.262550 21.055649
ltoes -15.682800
221
root 12.798165 24.424950 -9.478605 13.578539 -3.989685 -10.804545
lowerback -12.213301 4.265490 5.991960
upperback -1.591620 4.923060 5.960520
thorax 5.177625 2.489940 3.366030
lowerneck -23.585850 -9.184680 -21.152248
upperneck 22.262850 -11.710770 22.032450
head 12.540119 -4.785480 9.552691
rclavicle 0.000000 0.000000
rhumerus -58.824303 20.848351 -128.214142
rradius 79.545303
rwrist -39.188698
rhand -48.837746 -47.387848
rfingers 10.687531
rthumb -8.681940 -92.239349
lclavicle 0.000000 0.000000
lhumerus -76.016251 -11.185155 140.325012
lradius 36.271351
lwrist -1.803915
lhand -13.974646 -39.297749
lfingers 10.687531
lthumb 24.962700 4.662135
rfemur 22.616100 9.977280 47.782349
rtibia -0.000000
rfoot -19.282200 10.894216
rtoes -15.554400
lfemur -68.988152 2.090400 -16.026300
ltibia 33.019199
lfoot -22.396650 20.056351
ltoes -13.625206
222
root 12.826635 24.392101 -9.236295 13.850775 -4.206690 -10.939470
lowerback -12.346021 4.231725 5.923170
upperback -1.813710 4.885395 6.007005
thorax 5.014155 2.468280 3.447075
lowerneck -23.226749 -9.083549 -21.433800
upperneck 22.282650 -11.631660 22.438650
head 12.499801 -4.743345 9.763124
rclavicle 0.000000 0.000000
rhumerus -59.551952 20.797649 -128.484299
rradius 79.418999
rwrist -38.765549
rhand -48.346054 -46.869450
rfingers 10.687531
rthumb -8.207220 -91.733551
lclavicle 0.000000 0.000000
lhumerus -76.426048 -11.407380 140.472748
lradius 35.865749
lwrist -1.629465
lhand -14.319480 -40.165047
lfingers 10.687531
lthumb 24.630749 3.822495
rfemur 23.233950 9.978479 47.736298
rtibia -0.000000
rfoot -18.876150 10.959960
rtoes -17.122952
lfemur -69.368103 2.745270 -16.301550
ltibia 34.292099
lfoot -22.899300 19.497601
ltoes -12.291450
223
root 12.864315 24.353100 -8.968005 13.903996 -4.838640 -11.035080
lowerback -12.469950 4.250850 5.834850
upperback -1.781115 4.907250 6.020400
thorax 5.111250 2.478360 3.521115
lowerneck -23.532600 -9.017654 -21.080101
upperneck 22.625999 -11.575395 22.201351
head 12.633749 -4.702890 9.631125
rclavicle -0.000000 -0.000000
rhumerus -59.650200 20.843849 -128.856140
rradius 78.856354
rwrist -38.293049
rhand -47.823151 -46.643101
rfingers 10.687531
rthumb -7.702275 -91.519798
lclavicle -0.000000 -0.000000
lhumerus -76.631851 -11.778915 140.759247
lradius 35.493149
lwrist -0.816613
lhand -14.316000 -39.882301
lfingers 10.687531
lthumb 24.634052 4.104975
rfemur 24.213898 10.339905 47.566948
rtibia 0.000000
rfoot -18.257999 11.062756
rtoes -18.040501
lfemur -69.324150 3.712320 -16.714500
ltibia 35.752048
lfoot -22.339500 19.345051
ltoes -16.589399
224
root 12.910049 24.306900 -8.695620 14.149485 -5.406585 -11.448990
lowerback -12.950806 4.404825 6.263596
upperback -1.570155 5.024820 6.023265
thorax 5.622480 2.544615 3.337215
lowerneck -24.204750 -9.069660 -20.688601
upperneck 22.858950 -11.623080 21.899099
head 12.810270 -4.701105 9.447946
rclavicle -0.000000 -0.000000
rhumerus -59.390701 20.638350 -129.106506
rradius 78.281548
rwrist -37.827148
rhand -47.266949 -46.906349
rfingers 10.687531
rthumb -7.165260 -91.795654
lclavicle -0.000000 -0.000000
lhumerus -76.281601 -11.485035 140.383499
lradius 35.199749
lwrist -0.608582
lhand -13.690215 -38.981102
lfingers 10.687531
lthumb 25.236599 4.955550
rfemur 25.036350 10.731705 47.671799
rtibia -0.000000
rfoot -17.777851 11.265841
rtoes -16.018650
lfemur -69.554848 5.046495 -17.006701
ltibia 37.268101
lfoot -20.573851 18.913050
ltoes -23.789249
